<svg width="20" height="21" viewBox="0 0 20 21" fill="none" xmlns="http://www.w3.org/2000/svg">
<path d="M2.50781 9.85156V13.5932C2.50781 17.3349 4.00781 18.8349 7.74948 18.8349H12.2411C15.9828 18.8349 17.4828 17.3349 17.4828 13.5932V9.85156" stroke="#F7F7F7" stroke-width="1.5" stroke-linecap="round" stroke-linejoin="round"/>
<path d="M9.99975 10.5013C11.5247 10.5013 12.6497 9.25964 12.4997 7.73464L11.9497 2.16797H8.05808L7.49975 7.73464C7.34975 9.25964 8.47475 10.5013 9.99975 10.5013Z" stroke="#F7F7F7" stroke-width="1.5" stroke-linecap="round" stroke-linejoin="round"/>
<path d="M15.2577 10.5013C16.941 10.5013 18.1744 9.13464 18.0077 7.45964L17.7743 5.16797C17.4743 3.0013 16.641 2.16797 14.4577 2.16797H11.916L12.4993 8.00964C12.641 9.38464 13.8827 10.5013 15.2577 10.5013Z" stroke="#F7F7F7" stroke-width="1.5" stroke-linecap="round" stroke-linejoin="round"/>
<path d="M4.70063 10.5013C6.07563 10.5013 7.3173 9.38464 7.45063 8.00964L7.63397 6.16797L8.03397 2.16797H5.4923C3.30897 2.16797 2.47563 3.0013 2.17563 5.16797L1.95063 7.45964C1.78397 9.13464 3.0173 10.5013 4.70063 10.5013Z" stroke="#F7F7F7" stroke-width="1.5" stroke-linecap="round" stroke-linejoin="round"/>
<path d="M9.99935 14.668C8.60768 14.668 7.91602 15.3596 7.91602 16.7513V18.8346H12.0827V16.7513C12.0827 15.3596 11.391 14.668 9.99935 14.668Z" stroke="#F7F7F7" stroke-width="1.5" stroke-linecap="round" stroke-linejoin="round"/>
</svg>
