<svg width="60" height="60" viewBox="0 0 60 60" fill="none" xmlns="http://www.w3.org/2000/svg">
<path d="M0 30C0 13.4315 13.4315 0 30 0C46.5685 0 60 13.4315 60 30C60 46.5685 46.5685 60 30 60C13.4315 60 0 46.5685 0 30Z" fill="#FFF4E6"/>
<path d="M18.0137 28.9609V34.9476C18.0137 40.9343 20.4137 43.3343 26.4003 43.3343H33.587C39.5737 43.3343 41.9737 40.9343 41.9737 34.9476V28.9609" stroke="#FF9400" stroke-width="3" stroke-linecap="round" stroke-linejoin="round"/>
<path d="M30 30.0013C32.44 30.0013 34.24 28.0146 34 25.5746L33.12 16.668H26.8933L26 25.5746C25.76 28.0146 27.56 30.0013 30 30.0013Z" stroke="#FF9400" stroke-width="3" stroke-linecap="round" stroke-linejoin="round"/>
<path d="M38.4131 30.0013C41.1064 30.0013 43.0797 27.8146 42.8131 25.1346L42.4397 21.468C41.9597 18.0013 40.6264 16.668 37.1331 16.668H33.0664L33.9997 26.0146C34.2264 28.2146 36.2131 30.0013 38.4131 30.0013Z" stroke="#FF9400" stroke-width="3" stroke-linecap="round" stroke-linejoin="round"/>
<path d="M21.5198 30.0013C23.7198 30.0013 25.7065 28.2146 25.9198 26.0146L26.2132 23.068L26.8532 16.668H22.7865C19.2932 16.668 17.9598 18.0013 17.4798 21.468L17.1198 25.1346C16.8532 27.8146 18.8265 30.0013 21.5198 30.0013Z" stroke="#FF9400" stroke-width="3" stroke-linecap="round" stroke-linejoin="round"/>
<path d="M29.9993 36.668C27.7727 36.668 26.666 37.7746 26.666 40.0013V43.3346H33.3327V40.0013C33.3327 37.7746 32.226 36.668 29.9993 36.668Z" stroke="#FF9400" stroke-width="3" stroke-linecap="round" stroke-linejoin="round"/>
</svg>
