<svg width="79" height="79" viewBox="0 0 79 79" fill="none" xmlns="http://www.w3.org/2000/svg">
<path opacity="0.2" d="M68.75 39.5C68.75 45.2851 67.0345 50.9403 63.8205 55.7504C60.6065 60.5606 56.0382 64.3096 50.6935 66.5235C45.3488 68.7373 39.4676 69.3166 33.7936 68.188C28.1197 67.0594 22.9078 64.2736 18.8171 60.1829C14.7265 56.0922 11.9407 50.8803 10.812 45.2064C9.68343 39.5324 10.2627 33.6513 12.4765 28.3065C14.6904 22.9618 18.4394 18.3935 23.2496 15.1795C28.0597 11.9655 33.7149 10.25 39.5 10.25C47.2576 10.25 54.6974 13.3317 60.1829 18.8171C65.6683 24.3026 68.75 31.7424 68.75 39.5Z" fill="#00A082"/>
<path d="M53.412 30.463C53.6387 30.6893 53.8185 30.9582 53.9411 31.2541C54.0638 31.55 54.1269 31.8672 54.1269 32.1875C54.1269 32.5078 54.0638 32.825 53.9411 33.1209C53.8185 33.4168 53.6387 33.6857 53.412 33.912L36.3495 50.9745C36.1232 51.2012 35.8543 51.381 35.5584 51.5036C35.2625 51.6263 34.9453 51.6894 34.625 51.6894C34.3047 51.6894 33.9875 51.6263 33.6916 51.5036C33.3957 51.381 33.1269 51.2012 32.9005 50.9745L25.588 43.662C25.1306 43.2047 24.8737 42.5843 24.8737 41.9375C24.8737 41.2907 25.1306 40.6703 25.588 40.213C26.0454 39.7556 26.6657 39.4986 27.3125 39.4986C27.9593 39.4986 28.5797 39.7556 29.037 40.213L34.625 45.804L49.963 30.463C50.1894 30.2363 50.4582 30.0566 50.7541 29.9339C51.05 29.8112 51.3672 29.7481 51.6875 29.7481C52.0078 29.7481 52.325 29.8112 52.6209 29.9339C52.9168 30.0566 53.1857 30.2363 53.412 30.463ZM71.1875 39.5C71.1875 45.7672 69.3291 51.8936 65.8472 57.1046C62.3653 62.3156 57.4164 66.3771 51.6263 68.7754C45.8362 71.1738 39.4649 71.8013 33.3181 70.5786C27.1713 69.356 21.5251 66.338 17.0936 61.9064C12.662 57.4749 9.64405 51.8287 8.42138 45.6819C7.19871 39.5352 7.82623 33.1639 10.2246 27.3737C12.6229 21.5836 16.6844 16.6347 21.8954 13.1528C27.1064 9.67094 33.2328 7.8125 39.5 7.8125C47.9013 7.82137 55.956 11.1627 61.8967 17.1034C67.8373 23.044 71.1786 31.0987 71.1875 39.5ZM66.3125 39.5C66.3125 34.197 64.74 29.0131 61.7938 24.6038C58.8476 20.1945 54.6601 16.7579 49.7607 14.7285C44.8614 12.6991 39.4703 12.1681 34.2692 13.2027C29.068 14.2373 24.2905 16.7909 20.5407 20.5407C16.7909 24.2905 14.2373 29.068 13.2027 34.2691C12.1681 39.4703 12.6991 44.8614 14.7285 49.7607C16.7579 54.66 20.1945 58.8476 24.6038 61.7938C29.0131 64.74 34.197 66.3125 39.5 66.3125C46.6087 66.3044 53.4238 63.477 58.4504 58.4504C63.477 53.4238 66.3045 46.6086 66.3125 39.5Z" fill="#00A082"/>
</svg>
