<svg width="14" height="14" viewBox="0 0 14 14" fill="none" xmlns="http://www.w3.org/2000/svg">
<path d="M1.84961 4.33984L7.00043 7.32067L12.1163 4.35733" stroke="#5D5D5D" stroke-linecap="round" stroke-linejoin="round"/>
<path d="M7 12.6072V7.31641" stroke="#5D5D5D" stroke-linecap="round" stroke-linejoin="round"/>
<path d="M5.79285 1.44797L2.67785 3.18049C1.97202 3.57132 1.39453 4.55131 1.39453 5.35631V8.65216C1.39453 9.45716 1.97202 10.4371 2.67785 10.828L5.79285 12.5605C6.45785 12.928 7.54868 12.928 8.21368 12.5605L11.3287 10.828C12.0345 10.4371 12.612 9.45716 12.612 8.65216V5.35631C12.612 4.55131 12.0345 3.57132 11.3287 3.18049L8.21368 1.44797C7.54285 1.07464 6.45785 1.07464 5.79285 1.44797Z" stroke="#5D5D5D" stroke-linecap="round" stroke-linejoin="round"/>
<path d="M9.91669 7.7223V5.58732L4.38086 2.39062" stroke="#5D5D5D" stroke-linecap="round" stroke-linejoin="round"/>
</svg>
