<svg width="60" height="60" viewBox="0 0 60 60" fill="none" xmlns="http://www.w3.org/2000/svg">
<path d="M0 30C0 13.4315 13.4315 0 30 0C46.5685 0 60 13.4315 60 30C60 46.5685 46.5685 60 30 60C13.4315 60 0 46.5685 0 30Z" fill="#E6F3FF"/>
<path d="M26.2271 20.28L18.0937 35.7333C16.1604 39.4 20.0671 43.3867 23.7737 41.5333L28.0937 39.3733C29.2937 38.7733 30.7071 38.7733 31.9071 39.3733L36.2271 41.5333C39.9337 43.3867 43.8271 39.4 41.9071 35.7333L33.7737 20.28C32.1737 17.24 27.8271 17.24 26.2271 20.28Z" stroke="#0069CC" stroke-width="3" stroke-linecap="round" stroke-linejoin="round"/>
</svg>
