<svg width="14" height="14" viewBox="0 0 14 14" fill="none" xmlns="http://www.w3.org/2000/svg">
<path d="M1.16699 1.16797H2.182C2.812 1.16797 3.30783 1.71047 3.25533 2.33464L2.77116 8.14463C2.68949 9.09546 3.44199 9.91213 4.39865 9.91213H10.6112C11.4512 9.91213 12.1862 9.2238 12.2503 8.38964L12.5653 4.01464C12.6353 3.0463 11.9003 2.2588 10.9262 2.2588H3.39533" stroke="#F7F7F7" stroke-miterlimit="10" stroke-linecap="round" stroke-linejoin="round"/>
<path d="M9.47917 12.8333C9.88187 12.8333 10.2083 12.5069 10.2083 12.1042C10.2083 11.7015 9.88187 11.375 9.47917 11.375C9.07646 11.375 8.75 11.7015 8.75 12.1042C8.75 12.5069 9.07646 12.8333 9.47917 12.8333Z" stroke="#F7F7F7" stroke-miterlimit="10" stroke-linecap="round" stroke-linejoin="round"/>
<path d="M4.81217 12.8333C5.21488 12.8333 5.54134 12.5069 5.54134 12.1042C5.54134 11.7015 5.21488 11.375 4.81217 11.375C4.40947 11.375 4.08301 11.7015 4.08301 12.1042C4.08301 12.5069 4.40947 12.8333 4.81217 12.8333Z" stroke="#F7F7F7" stroke-miterlimit="10" stroke-linecap="round" stroke-linejoin="round"/>
<path d="M5.25 4.66797H12.25" stroke="#F7F7F7" stroke-miterlimit="10" stroke-linecap="round" stroke-linejoin="round"/>
</svg>
